<?xml version="1.0" encoding="UTF-8"?>
<svg width="445" height="377.95" enable-background="new 0 0 841.9 595.3" version="1.1" viewBox="0 0 445 377.95" xml:space="preserve" xmlns="http://www.w3.org/2000/svg" xmlns:cc="http://creativecommons.org/ns#" xmlns:dc="http://purl.org/dc/elements/1.1/" xmlns:rdf="http://www.w3.org/1999/02/22-rdf-syntax-ns#"><metadata><rdf:RDF><cc:Work rdf:about=""><dc:format>image/svg+xml</dc:format><dc:type rdf:resource="http://purl.org/dc/dcmitype/StillImage"/><dc:title/></cc:Work></rdf:RDF></metadata>
<g transform="matrix(1.7417 0 0 1.7417 -478.96 -374.81)">
	<path id="XMLID_172_" d="m477.4 248.7 17.4 18c-0.3 0.7-0.5 1.6-0.5 2.4 0 3.2 2.6 5.9 5.9 5.9 3.2 0 5.9-2.6 5.9-5.9 0-3.2-2.6-5.9-5.9-5.9-0.9 0-1.8 0.2-2.6 0.6l-18.2-18.8-38.7-7.4c-0.4-2.9-2.8-5.1-5.8-5.1-3.2 0-5.9 2.6-5.9 5.9s2.6 5.9 5.9 5.9c2.1 0 3.9-1.1 5-2.8zm-40.6-10.3c0 1.1-0.9 2-2 2s-2-0.9-2-2 0.9-2 2-2 2 0.9 2 2zm61.4 30.7c0-1.1 0.9-2 2-2s2 0.9 2 2-0.9 2-2 2c-1.1-0.1-2-0.9-2-2z" fill="#fedc00"/>
	<path id="XMLID_176_" d="m283.6 335.9c-0.7 1-1.2 2.2-1.2 3.5 0 3.2 2.6 5.9 5.9 5.9s5.9-2.6 5.9-5.9c0-3.2-2.6-5.9-5.9-5.9-0.5 0-1 0.1-1.4 0.2l-7.5-12.3 18.9-37.4h0.7c3.2 0 5.9-2.6 5.9-5.9 0-3.2-2.6-5.9-5.9-5.9-3.2 0-5.9 2.6-5.9 5.9 0 1.6 0.6 3 1.7 4.1l-19.8 39.3zm15.3-55.7c-1.1 0-2-0.9-2-2s0.9-2 2-2 2 0.9 2 2c0 1.2-0.9 2-2 2zm-12.6 59.2c0-1.1 0.9-2 2-2s2 0.9 2 2-0.9 2-2 2-2-0.9-2-2z" fill="#374a9f"/><g fill="#fedc00">
	<path id="XMLID_180_" d="m470.4 264.4 13.1 14c-0.4 0.8-0.6 1.7-0.6 2.6 0 3.2 2.6 5.9 5.9 5.9 3.2 0 5.9-2.6 5.9-5.9 0-3.2-2.6-5.9-5.9-5.9-0.9 0-1.7 0.2-2.4 0.5l-13.9-14.9-33.2-6.9c-0.4-2.8-2.8-5-5.8-5-3.2 0-5.9 2.6-5.9 5.9 0 3.2 2.6 5.9 5.9 5.9 2.1 0 4-1.2 5-2.9zm-35-9.6c0 1.1-0.9 2-2 2s-2-0.9-2-2 0.9-2 2-2c1.1 0.1 2 1 2 2zm51.4 26.3c0-1.1 0.9-2 2-2s2 0.9 2 2-0.9 2-2 2c-1.1-0.1-2-0.9-2-2z"/>
	<path id="XMLID_184_" d="m507.9 330.1c-0.6 0.9-1 2-1 3.2 0 3.2 2.6 5.9 5.9 5.9 3.2 0 5.9-2.6 5.9-5.9 0-3.2-2.6-5.9-5.9-5.9-0.6 0-1.2 0.1-1.8 0.3l-20.5-25.6 30.5-34.3-19.4-21.9c0.4-0.8 0.6-1.6 0.6-2.5 0-3.2-2.6-5.9-5.9-5.9-3.2 0-5.9 2.6-5.9 5.9 0 3.2 2.6 5.9 5.9 5.9 0.9 0 1.8-0.2 2.5-0.6l16.9 19.1-30.4 34.1zm-9.7-86.7c0 1.1-0.9 2-2 2s-2-0.9-2-2 0.9-2 2-2c1.2 0 2 0.9 2 2zm12.6 89.9c0-1.1 0.9-2 2-2s2 0.9 2 2-0.9 2-2 2c-1.1-0.1-2-0.9-2-2z"/>
	<path id="XMLID_188_" d="m489.4 336.6c-0.6 0.9-0.9 2-0.9 3.1 0 3.2 2.6 5.9 5.9 5.9s5.9-2.6 5.9-5.9c0-3.2-2.6-5.9-5.9-5.9-0.7 0-1.3 0.1-1.9 0.3l-24.5-29.3 6.4-6.9c0.7 0.3 1.4 0.4 2.1 0.4 3.2 0 5.9-2.6 5.9-5.9 0-3.2-2.6-5.9-5.9-5.9-3.2 0-5.9 2.6-5.9 5.9 0 1.1 0.3 2 0.8 2.9l-8.7 9.3zm-14.9-44.1c0-1.1 0.9-2 2-2s2 0.9 2 2-0.9 2-2 2-2-0.9-2-2zm17.9 47.2c0-1.1 0.9-2 2-2s2 0.9 2 2-0.9 2-2 2-2-0.9-2-2z"/>
	</g><path id="XMLID_192_" d="m437.5 374.6 37.2-35.3c0.9 0.6 2 1 3.2 1 3.2 0 5.9-2.6 5.9-5.9s-2.6-5.9-5.9-5.9c-3.2 0-5.9 2.6-5.9 5.9 0 0.6 0.1 1.2 0.3 1.8l-35.7 33.9-57-22.1v-0.4c0-3.2-2.6-5.9-5.9-5.9-3.2 0-5.9 2.6-5.9 5.9 0 3.2 2.6 5.9 5.9 5.9 1.7 0 3.2-0.7 4.3-1.9zm-61.8-27.1c0 1.1-0.9 2-2 2s-2-0.9-2-2 0.9-2 2-2c1.1 0.1 2 0.9 2 2zm102.2-11.1c-1.1 0-2-0.9-2-2s0.9-2 2-2 2 0.9 2 2-1 2-2 2z" fill="#374a9f"/>
	<path id="XMLID_196_" d="m333.8 417.3c0 3.2 2.6 5.9 5.9 5.9 3.2 0 5.9-2.6 5.9-5.9 0-0.8-0.1-1.5-0.4-2.1l6.9-7c0.7 0.3 1.4 0.4 2.2 0.4 3.2 0 5.9-2.6 5.9-5.9 0-3.2-2.6-5.9-5.9-5.9-3.2 0-5.9 2.6-5.9 5.9 0 1 0.3 2 0.7 2.8l-6.5 6.6c-0.9-0.5-1.8-0.8-2.9-0.8-3.3 0.2-5.9 2.8-5.9 6zm20.4-12.5c-1.1 0-2-0.9-2-2s0.9-2 2-2 2 0.9 2 2c-0.1 1.1-1 2-2 2zm-16.5 12.5c0-1.1 0.9-2 2-2s2 0.9 2 2-0.9 2-2 2-2-0.9-2-2z" fill="#ec2427"/>
	<path id="XMLID_200_" d="m396.1 265.2c0 0.8 0.2 1.6 0.5 2.3l-11.6 10-35-10.7c-0.3-3-2.8-5.3-5.8-5.3-3.2 0-5.9 2.6-5.9 5.9s2.6 5.9 5.9 5.9c2 0 3.8-1.1 4.9-2.6l36.9 11.3 13.2-11.5c0.8 0.4 1.8 0.7 2.8 0.7 3.2 0 5.9-2.6 5.9-5.9 0-3.2-2.6-5.9-5.9-5.9s-5.9 2.5-5.9 5.8zm-50 2.2c0 0.2 0 0.3-0.1 0.5v0.1c-0.3 0.8-1 1.3-1.8 1.3-1.1 0-2-0.9-2-2s0.9-2 2-2c1 0.1 1.9 1 1.9 2.1zm53.9-2.2c0-1.1 0.9-2 2-2s2 0.9 2 2-0.9 2-2 2-2-1-2-2z" fill="#fedc00"/><g fill="#ec2427">
	<path id="XMLID_204_" d="m293.9 361.2c0 3.2 2.6 5.9 5.9 5.9 1.1 0 2.1-0.3 3-0.8l31.5 26.5 35.6 2.1 22.2-22c0.7 0.3 1.4 0.4 2.2 0.4 3.2 0 5.9-2.6 5.9-5.9 0-3.2-2.6-5.9-5.9-5.9-3.2 0-5.9 2.6-5.9 5.9 0 1 0.3 2 0.7 2.8l-20.8 20.6-32.5-1.9-30.4-25.6c0.2-0.6 0.4-1.3 0.4-2.1 0-3.2-2.6-5.9-5.9-5.9-3.4 0-6 2.6-6 5.9zm100.2 8.1c-1.1 0-2-0.9-2-2s0.9-2 2-2 2 0.9 2 2-0.9 2-2 2zm-96.3-8.1c0-1.1 0.9-2 2-2s2 0.9 2 2-0.9 2-2 2c-1.1-0.1-2-0.9-2-2z"/>
	<path id="XMLID_208_" d="m308.7 345.8 29.2-8.5 12.4 3.8v0.3c0 3.2 2.6 5.9 5.9 5.9 3.2 0 5.9-2.6 5.9-5.9 0-3.2-2.6-5.9-5.9-5.9-1.7 0-3.3 0.8-4.3 1.9l-13.9-4.3-30.4 8.9c-1.1-1.4-2.8-2.4-4.7-2.4-3.2 0-5.9 2.6-5.9 5.9 0 3.2 2.6 5.9 5.9 5.9 3.1 0 5.6-2.5 5.8-5.6zm45.5-4.4c0-1.1 0.9-2 2-2s2 0.9 2 2-0.9 2-2 2-2-0.9-2-2zm-49.4 4.2c0 1.1-0.9 2-2 2s-2-0.9-2-2 0.9-2 2-2 2 0.9 2 2z"/>
	<path id="XMLID_212_" d="m345.2 426.3c0 3.2 2.6 5.9 5.9 5.9 3.2 0 5.9-2.6 5.9-5.9 0-0.9-0.2-1.7-0.6-2.5l48.6-47.2c0.8 0.4 1.6 0.6 2.5 0.6 3.2 0 5.9-2.6 5.9-5.9 0-3.2-2.6-5.9-5.9-5.9-3.2 0-5.9 2.6-5.9 5.9 0 0.9 0.2 1.7 0.6 2.5l-48.6 47.2c-0.8-0.4-1.6-0.6-2.5-0.6-3.2 0-5.9 2.6-5.9 5.9zm60.4-55c0-1.1 0.9-2 2-2s2 0.9 2 2-0.9 2-2 2c-1.2-0.1-2-0.9-2-2zm-56.5 55c0-1.1 0.9-2 2-2s2 0.9 2 2-0.9 2-2 2-2-1-2-2z"/>
	</g><path id="XMLID_216_" d="m467 285.8c0-3.2-2.6-5.9-5.9-5.9-1.7 0-3.2 0.7-4.3 1.9l-16.7-6.7-41.4 47.4c-0.7-0.2-1.4-0.4-2.1-0.4-3.2 0-5.9 2.6-5.9 5.9 0 3.2 2.6 5.9 5.9 5.9 3.2 0 5.9-2.6 5.9-5.9 0-1.1-0.3-2.1-0.8-2.9l39.5-45.3 14.1 5.7v0.4c0 3.2 2.6 5.9 5.9 5.9 3.1-0.1 5.8-2.7 5.8-6zm-68.4 42.2c0 1.1-0.9 2-2 2s-2-0.9-2-2 0.9-2 2-2 2 0.9 2 2zm64.5-42.2c0 1.1-0.9 2-2 2s-2-0.9-2-2 0.9-2 2-2c1.1 0.1 2 0.9 2 2z" fill="#fedc00"/>
	<path id="XMLID_220_" d="m427 334.1c0-0.8-0.2-1.5-0.4-2.2l22.7-23.5c0.8 0.4 1.6 0.6 2.5 0.6 3.2 0 5.9-2.6 5.9-5.9 0-3.2-2.6-5.9-5.9-5.9-3.2 0-5.9 2.6-5.9 5.9 0 0.9 0.2 1.8 0.6 2.6l-0.1-0.1-22.4 23.4c-0.8-0.5-1.8-0.7-2.9-0.7-3.2 0-5.9 2.6-5.9 5.9 0 3.2 2.6 5.9 5.9 5.9 3.3-0.1 5.9-2.7 5.9-6zm22.9-31c0-1.1 0.9-2 2-2s2 0.9 2 2-0.9 2-2 2-2-0.9-2-2zm-26.8 31c0 1.1-0.9 2-2 2s-2-0.9-2-2 0.9-2 2-2c1.2 0.1 2 0.9 2 2z" fill="#fedc00"/>
	<path id="XMLID_224_" d="m460 319.3c-3.2 0-5.9 2.6-5.9 5.9 0 0.8 0.1 1.5 0.4 2.1l-23 23.8-65.4-24.9c-0.1-3.2-2.7-5.7-5.9-5.7s-5.9 2.6-5.9 5.9 2.6 5.9 5.9 5.9c1.9 0 3.5-0.9 4.6-2.3l67.6 25.8 24.5-25.4c0.9 0.5 1.8 0.8 2.9 0.8 3.2 0 5.9-2.6 5.9-5.9 0.2-3.3-2.5-6-5.7-6zm-97.7 7c0 1.1-0.9 2-2 2s-2-0.9-2-2 0.9-2 2-2c1.1 0.1 2 0.9 2 2zm99.6-1.1c0 1.1-0.9 2-2 2s-2-0.9-2-2 0.9-2 2-2 2 0.9 2 2z" fill="#374a9f"/><g fill="#fedc00">
	<path id="XMLID_228_" d="m517.5 321.8c3.2 0 5.9-2.6 5.9-5.9 0-1.1-0.3-2.1-0.8-3l7.9-9-2.8-16.9c1.6-1 2.7-2.9 2.7-4.9 0-3.2-2.6-5.9-5.9-5.9-3.2 0-5.9 2.6-5.9 5.9 0 3 2.3 5.5 5.2 5.8l2.5 14.8-6.7 7.7c-0.6-0.2-1.3-0.4-2.1-0.4-3.2 0-5.9 2.6-5.9 5.9s2.7 5.9 5.9 5.9zm8.9-39.6c0 1.1-0.9 2-2 2s-2-0.9-2-2 0.9-2 2-2c1.2 0 2 0.9 2 2zm-8.9 35.7c-1.1 0-2-0.9-2-2s0.9-2 2-2 2 0.9 2 2c0 1.2-0.9 2-2 2z"/>
	<path id="XMLID_232_" d="m415.3 267.7c0 1.4 0.5 2.8 1.4 3.8l-20.9 23.7-9.3-1.2c-0.4-2.9-2.8-5.1-5.8-5.1-3.2 0-5.9 2.6-5.9 5.9 0 3.2 2.6 5.9 5.9 5.9 2.1 0 4-1.1 5-2.8l11.7 1.5 22.8-25.9c0.3 0.1 0.7 0.1 1 0.1 3.2 0 5.9-2.6 5.9-5.9 0-3.2-2.6-5.9-5.9-5.9s-5.9 2.6-5.9 5.9zm-32.6 27.1c0 1.1-0.9 2-2 2s-2-0.9-2-2 0.9-2 2-2 2 0.9 2 2zm38.5-25.2c-1.1 0-2-0.9-2-2s0.9-2 2-2 2 0.9 2 2c-0.1 1.2-0.9 2-2 2z"/>
	<path id="XMLID_236_" d="m379.3 221.1c0-3.2-2.6-5.9-5.9-5.9-3.2 0-5.9 2.6-5.9 5.9 0 1.5 0.5 2.8 1.4 3.8l-7.8 17.5 50.5 15.8 7.7-17.9h0.6c3.2 0 5.9-2.6 5.9-5.9 0-3.2-2.6-5.9-5.9-5.9-3.2 0-5.9 2.6-5.9 5.9 0 1.6 0.7 3.1 1.7 4.2l-6.3 14.8-43-13.5 5.8-13.2c0.3 0.1 0.7 0.1 1 0.1 3.5 0.1 6.1-2.5 6.1-5.7zm40.8 15.3c-1.1 0-2-0.9-2-2s0.9-2 2-2 2 0.9 2 2c-0.1 1.1-1 2-2 2zm-44.7-15.3c0 1.1-0.9 2-2 2s-2-0.9-2-2 0.9-2 2-2 2 0.9 2 2z"/>
	<path id="XMLID_240_" d="m355.9 227.8c0-3.2-2.6-5.9-5.9-5.9-3.2 0-5.9 2.6-5.9 5.9 0 1.7 0.7 3.2 1.9 4.3l-7.3 19.3 36.1 10.5c0.4 2.8 2.9 5 5.8 5 3.2 0 5.9-2.6 5.9-5.9s-2.6-5.9-5.9-5.9c-2.1 0-4 1.2-5 2.9l-31.8-9.2 5.7-15.2h0.4c3.3 0 6-2.6 6-5.8zm22.8 33.2c0-1.1 0.9-2 2-2s2 0.9 2 2-0.9 2-2 2c-1.1-0.1-2-0.9-2-2zm-26.8-33.2c0 1.1-0.9 2-2 2s-2-0.9-2-2 0.9-2 2-2c1.2 0 2 0.9 2 2z"/></g><g fill="#374a9f">
	<path id="XMLID_244_" d="m338.8 238.1c0-3.2-2.6-5.9-5.9-5.9-3.2 0-5.9 2.6-5.9 5.9 0 0.9 0.2 1.7 0.5 2.4l-23.1 21.8 7.6 29.7c-1.6 1-2.7 2.9-2.7 5 0 3.2 2.6 5.9 5.9 5.9s5.9-2.6 5.9-5.9c0-3-2.3-5.5-5.2-5.8l-6.9-27.6 21.4-20.3c0.8 0.4 1.7 0.6 2.6 0.6 3.2 0 5.8-2.6 5.8-5.8zm-25.7 58.9c0-1.1 0.9-2 2-2s2 0.9 2 2-0.9 2-2 2c-1.1-0.1-2-0.9-2-2zm21.8-58.9c0 1.1-0.9 2-2 2s-2-0.9-2-2 0.9-2 2-2 2 0.9 2 2z"/>
	<path id="XMLID_248_" d="m299.7 325.7c3.2 0 5.9-2.6 5.9-5.9v-0.5l38.2-16-12.8-38.6c1.3-1.1 2.2-2.7 2.2-4.6 0-3.2-2.6-5.9-5.9-5.9-3.2 0-5.9 2.6-5.9 5.9 0 3.2 2.6 5.8 5.8 5.9l11.6 35.2-34.8 14.6c-1.1-1.1-2.6-1.8-4.2-1.8-3.2 0-5.9 2.6-5.9 5.9s2.6 5.8 5.8 5.8zm29.6-65.6c0 1.1-0.9 2-2 2s-2-0.9-2-2 0.9-2 2-2c1.2 0.1 2 1 2 2zm-31.5 59.8c0-1.1 0.9-2 2-2s2 0.9 2 2-0.9 2-2 2-2-0.9-2-2z"/>
	<path id="XMLID_252_" d="m324.3 327.1v-0.2l44.3-18.6-6.3-16.5c1.2-1.1 1.9-2.6 1.9-4.3 0-3.2-2.6-5.9-5.9-5.9-3.2 0-5.9 2.6-5.9 5.9 0 3.2 2.6 5.9 5.9 5.9h0.4l4.9 12.8-40.7 17.1c-1.1-1.2-2.7-2-4.4-2-3.2 0-5.9 2.6-5.9 5.9 0 3.2 2.6 5.9 5.9 5.9 3.2-0.1 5.8-2.7 5.8-6zm36-39.6c0 1.1-0.9 2-2 2s-2-0.9-2-2 0.9-2 2-2 2 0.9 2 2zm-39.9 39.6c0 1.1-0.9 2-2 2s-2-0.9-2-2 0.9-2 2-2 2 1 2 2z"/>
	</g><path id="XMLID_256_" d="m485.7 234.2c0-3.2-2.6-5.9-5.9-5.9-2.1 0-3.9 1.1-5 2.8l-71.8-12.5-10.6 10.4c-0.3 0-0.6-0.1-0.9-0.1-3.2 0-5.9 2.6-5.9 5.9 0 3.2 2.6 5.9 5.9 5.9 3.2 0 5.9-2.6 5.9-5.9 0-1.5-0.5-2.8-1.4-3.8l8.3-8.2 69.6 12.1c0.4 2.9 2.8 5.1 5.8 5.1 3.3 0 6-2.6 6-5.8zm-94.1-1.4c1.1 0 2 0.9 2 2s-0.9 2-2 2-2-0.9-2-2 0.9-2 2-2zm90.2 1.4c0 1.1-0.9 2-2 2s-2-0.9-2-2 0.9-2 2-2 2 0.9 2 2z" fill="#fedc00"/>
	<path id="XMLID_260_" d="m336 366.2c-3.2 0-5.9 2.6-5.9 5.9 0 3.2 2.6 5.9 5.9 5.9 2.4 0 4.4-1.4 5.3-3.4l21.2 2.6c0.2 3.1 2.7 5.6 5.8 5.6 3.2 0 5.9-2.6 5.9-5.9 0-3.2-2.6-5.9-5.9-5.9-1.9 0-3.6 0.9-4.7 2.4l-22-2.7c-0.5-2.6-2.8-4.5-5.6-4.5zm30.5 10.6c0-1.1 0.9-2 2-2s2 0.9 2 2-0.9 2-2 2-2-0.9-2-2zm-30.5-6.7c1.1 0 2 0.9 2 2s-0.9 2-2 2-2-0.9-2-2c0.1-1.1 1-2 2-2z" fill="#ec2427"/>
	<path id="XMLID_264_" d="m327.1 366.2c0-0.7-0.1-1.3-0.3-1.9l10.6-8.8 36.1 8.1v0.1c0 3.2 2.6 5.9 5.9 5.9 3.2 0 5.9-2.6 5.9-5.9 0-3.2-2.6-5.9-5.9-5.9-1.8 0-3.4 0.8-4.5 2.1l-38.5-8.7-12 10c-0.9-0.6-2-0.9-3.1-0.9-3.2 0-5.9 2.6-5.9 5.9 0 3.2 2.6 5.9 5.9 5.9 3.2 0 5.8-2.6 5.8-5.9zm50.3-2.5c0-1.1 0.9-2 2-2s2 0.9 2 2-0.9 2-2 2-2-0.9-2-2zm-56.2 0.6c1.1 0 2 0.9 2 2s-0.9 2-2 2-2-0.9-2-2 1-2 2-2z" fill="#ec2427"/>
</g>
</svg>
