<svg version="1" xmlns="http://www.w3.org/2000/svg" width="1186.667" height="1186.667" viewBox="0 0 890.000000 890.000000"><path d="M332.8 69.6c-7.5 4.9-10.8 11.2-10.3 19.7.2 2.6 1.3 6.4 2.4 8.3l2.1 3.5-2.4 5.2c-1.3 2.9-5.8 13.1-10.1 22.7-4.2 9.6-8.9 20-10.3 23-1.4 3-2.6 5.9-2.8 6.5-.1.5-.3 1.6-.5 2.4-.2.7.3 1.5 1.1 1.6.8.2 5.3 1.6 10 3 4.7 1.5 10.5 3.3 13 4.1 2.5.7 6.5 2 9 2.8 2.5.8 8.1 2.6 12.5 3.9C359 180.2 387 189 392 190.7c2.5.8 5.2 1.6 6.1 1.8.9.2 9.4 2.8 19 5.9 9.6 3.1 17.9 5.7 18.4 5.7.6.1 4.2 1.3 8 2.6 3.9 1.3 7.9 2.5 9 2.8 1.1.2 6.7 1.9 12.3 3.8l10.4 3.4 1.9-3.1c1-1.7 1.9-3.4 1.9-3.8 0-.4 1.1-3.1 2.4-6 5.1-11.4 6.8-15.2 8.6-19.7 1-2.5 3-7.3 4.5-10.6 4.5-10.1 5.3-11.9 6.8-15.6 1.3-3.1 1.9-3.6 5.1-3.7 9.8-.4 18.7-9.8 18.8-20 .1-15.4-15.6-25.4-29.4-18.6-10.9 5.5-14.6 18.2-8.4 28.9 2.6 4.4 2.7 4.6 1 8.3-3 6.8-5.1 11.6-10.9 25.2-9.3 22.2-9.4 22.3-11.3 21.5-.9-.4-3-1.1-4.7-1.5-1.6-.5-6.4-1.9-10.5-3.3-8.4-2.8-30.8-9.9-32.7-10.4-2.4-.6-3.8-1-5.3-1.6-.8-.3-8.2-2.6-16.5-5.2-8.2-2.5-16.1-5-17.5-5.5-2.8-1-29-9.1-30.5-9.5-.5-.1-1.7-.5-2.5-.8-2.8-1.1-15.1-4.9-16.3-5.1-.7-.1-1.6-.4-2.2-.8-.5-.3-2.5-.9-4.2-1.3-1.8-.3-3.5-1.1-3.8-1.6-.6-.8 16.8-41.9 18.8-44.6.5-.7 2-1.1 3.3-.9 1.3.3 4 0 6.1-.6 15.9-4.2 20.8-23.4 8.8-34.4-6.2-5.7-17.1-6.9-23.7-2.8zm15.6 14.5c1.5 2.5 1.6 3.5.6 5.9-2 4.7-8 5.7-11.2 1.8-3.9-4.5-.7-10.8 5.5-10.8 2.6 0 3.6.6 5.1 3.1zm161.3 44.7c1.2.9 2.3 2.4 2.5 3.2.5 2.6-2.3 7.8-4.5 8.4-3.6 1-4.5.7-7-1.9-5.8-6.3 2.3-15.1 9-9.7z"/><path d="M427.6 96.7l-17.9 17.7-5.9.8c-11.2 1.5-18.9 10.2-18.3 20.8.7 12 8.9 19.6 21.1 19.4 6.5-.1 10.4-2 15.2-7.4 5.1-5.7 5.9-17 1.6-23.6l-1.7-2.6 14.4-14.2c13-12.8 14.8-14.2 17.1-13.5 1.4.3 4.5.9 6.9 1.3 2.4.3 6 .8 7.9 1.2 7 1.1 20.2 3.4 28.8 5 4.8.9 9.6 1.7 10.7 1.9 1.1.1 3.6.6 5.5.9 1.9.4 4.6.9 6 1 2.3.3 4.5.7 12 2.1 1.4.2 3.9.7 5.5 1 1.7.3 4.4.7 6 1 1.7.3 4.1.7 5.5 1 1.4.3 3.9.7 5.5.9 1.7.3 4.2.7 5.5 1 3.7.9 8.1 1.6 12 2.1 1.9.3 4.6.7 6 1 1.4.3 4.1.8 6 1.1 1.9.2 4.6.7 6 1 1.4.2 3.7.7 5.3.9 1.5.3 3.9.7 5.5 1 1.5.3 4.3.8 6.2 1.1 1.9.3 4.4.7 5.5.9 4.6.9 7.4 1.4 14.2 2.5 3.9.6 7.7 1.3 8.5 1.4 6 1.2 12 2.3 17.8 3.2 1.9.3 8.2 1.4 14 2.4 5.8 1 12.1 2.1 14 2.4 1.9.3 4.9.8 6.5 1.2 1.7.3 3.6.7 4.4.8.8.2 2.1 2.1 3 4.2 1.9 4.7 5.4 9.4 7 9.4.6 0 1.1.4 1.1.9 0 1 4.8 2.8 9.5 3.4 5 .7 12.1-2 16.4-6.2 5.6-5.5 7.4-12.9 5-20.2-4.9-14.5-22.7-18.7-34-8-3.6 3.5-3.6 3.5-11 2.1-3-.6-7-1.3-8.9-1.6-1.9-.2-4.2-.6-5-.9-.8-.2-3.5-.7-6-1-2.5-.3-5.2-.8-6-1-.8-.2-2.8-.6-4.5-.9-4.8-.8-20.8-3.6-23.1-4-1.2-.2-3.8-.7-5.9-1-2.1-.4-8.9-1.5-15.1-2.7-6.1-1.1-12.7-2.2-14.6-2.4-1.8-.3-4.4-.7-5.8-1-3.9-.8-8.3-1.6-10.5-2-1.9-.3-11-1.8-18-3-1.6-.3-5.2-1-8-1.5-2.7-.5-6.8-1.2-9-1.6-6.5-1-7.4-1.2-22-3.8-7.7-1.5-15.6-2.8-17.5-3.1-1.9-.2-4.6-.7-6-1-2.7-.6-6.8-1.3-11.5-2-1.6-.2-5.2-.8-8-1.3-2.7-.6-6.8-1.3-9-1.6-2.3-.4-5.2-.9-6.5-1.1-3.6-.7-15-2.6-18.5-3.1-2.7-.4-4.6 1.1-20.9 17.3zm290.1 31.5c6.1 5-.1 14.2-7.3 10.9-6.8-3.1-3.4-13.9 4-12.5 1 .2 2.5.9 3.3 1.6zm-306.3 2.9c1.7 1.5 1.8 2.4 1 5.5-.7 2.9-1.7 4.1-4.2 5.1-3.2 1.3-3.4 1.2-6.4-1.7-2.4-2.4-2.9-3.6-2.4-5.6 1.6-6.2 7.4-7.8 12-3.3zM254.2 91.9c-12.3 4.8-17.1 18.4-10.2 29.4l3.1 5-5.6 15.1c-3.1 8.3-6 16-6.5 17.1-.5 1.1-3.4 8.5-6.4 16.5-3 8-5.7 15.2-6.1 16.1-.5 1.4.6 2.1 5.8 3.8 3.5 1.2 7.4 2.4 8.8 2.7 3 .7 3.2.7 10.1 2.8 3.2 1 6.1 1.8 6.5 1.8.5 0 3.1.9 5.8 1.8 2.8.9 5.3 1.8 5.7 1.9.4.1 1.3.4 2 .6.7.3 3.8 1.1 6.8 1.9 3 .8 12.7 3.5 21.5 6.1 8.8 2.6 16.5 4.8 17 5 .6.1 1.7.4 2.5.7 1.7.7 10.6 3.2 19 5.4 3 .8 6.2 1.8 7 2.1.8.3 2.1.7 2.8.9 3.2.6 4 1.4 4.7 4.2.9 4.3 6.8 10.7 11.6 12.6 15.4 6.2 31.1-7.3 27.6-23.7-1-4.8-4.1-9.1-8.9-12.3-4-2.7-5.4-3.1-10.5-3-6.7.2-11.9 2.4-15.8 6.7-1.4 1.7-3.2 2.9-3.8 2.6-.7-.2-7.7-2.3-15.7-4.6-8-2.3-18.3-5.4-23-6.7-4.7-1.4-11-3.2-14-4.1-3-.8-6.6-1.9-8-2.3-1.4-.5-5-1.5-8-2.4-3-.8-8.6-2.5-12.4-3.6-3.7-1.1-7.8-2.2-9-2.5-4.2-.9-17.5-5-18.1-5.6-.5-.6 14.3-41.4 18-49.7 1-2.2 2.2-3.2 3.7-3.2 5.4-.1 15.6-5.8 15.7-8.8.1-.6.5-1.2.9-1.2 1.5 0 3-6.7 2.7-11.8-.8-13.4-14.6-22.2-27.3-17.3zm12.2 14.9c2.6 4.5.8 9.4-3.9 10.6-3.2.8-7-1.3-8-4.4-.9-2.7 1.2-7.7 3.3-8.4 2.9-.8 7.6.4 8.6 2.2zM373 222c2.5 2.5 2.6 6.1.3 8.8-3.8 4.4-11.1 2.3-11.9-3.4-.3-2 1.3-5.5 3-6.6 2.1-1.4 6.6-.8 8.6 1.2zM194.6 127.7c-2.2.7-4.8 2.1-5.9 3.1-5.8 5.1-9 15-6.9 21.1 1 2.9.8 3.4-2.6 6.5-2 1.9-6.7 6.3-10.3 9.8-3.6 3.5-12.5 11.9-19.8 18.8-7.3 6.9-15.9 15-19.1 18-3.1 3-10.7 10.1-16.7 15.8l-11 10.3 2.8 10.7c1.6 5.9 3.1 11.7 3.3 12.8.2 1.2 1.6 6.4 3 11.5 1.4 5.2 2.7 10.5 3 11.9.3 1.4 1.6 6.8 3 12 5.8 22 9.8 37.7 10.2 39.9.3 1.4.7 2.9 1 3.3.3.5-.5 1.9-1.9 3.1-2.8 2.5-6 7.3-6.4 9.6-1.6 8.9 0 15.1 5.3 20.3 15.4 15.4 40.6-.2 33.7-20.8-1.8-5.3-7.4-10.9-12.6-12.7-4.4-1.4-4.9-2.3-7.1-13.5-.3-1.3-1-3.7-1.5-5.5-.6-1.8-1.8-6.1-2.6-9.7-.9-3.6-1.8-7.3-2.1-8.3-.2-.9-.6-2.5-.8-3.5-2.9-12-7.9-32.4-8.6-34.7-2.1-7.1-5-19.3-5-21.2 0-1.2.4-2.3.9-2.5.5-.2 7.6-6.6 15.7-14.3 8.1-7.7 17-16.2 19.8-18.8 2.8-2.7 11.4-10.9 19.1-18.2 19.9-18.9 17.6-17.3 23.3-16.2 16 3.3 29.2-12.8 22.6-27.5-4.5-10.2-15.3-14.8-25.8-11.1zm11.3 14.1c1.2.9 2.3 2.6 2.5 3.7.4 2.5-2 7.5-3.7 7.6-.6 0-2 .2-2.9.4-2.9.5-6.8-3.3-6.8-6.6 0-5.8 6.4-8.8 10.9-5.1zM142.5 346c4.9 1.9 5.3 9.4.5 12-2.6 1.4-8.5-.3-9.4-2.6-1.2-3.1-.6-6.4 1.6-8.4 2.5-2.3 3.6-2.4 7.3-1z"/><path d="M550.7 128.5c-5.7 1.9-8.4 4.1-11.1 8.8-9.3 15.7 4.9 35 22.3 30.4 3.8-1 8.9-4.2 11-7 1.3-1.8 3.3-1.9 11.1-.2 1.4.3 5 .9 8 1.5s6.6 1.2 8 1.5c5.4 1.2 21.1 4.1 27 5.1 1.9.3 3.8.8 4.1 1 .4.2 2.8.6 5.5.9 2.6.4 5.1.8 5.5 1 .4.3 2.4.7 4.5 1 2.2.3 5.9 1 8.4 1.5s5.9 1.2 7.5 1.5c1.7.3 11.9 2.3 22.9 4.4l19.9 3.9 9.4 9.8c5.2 5.5 18.5 19.3 29.6 30.8l20.2 20.8v8.2c0 7.3.3 8.7 2.7 12.4 9.4 14.1 31 11.7 36.4-4.2 5.6-16.4-9.6-31.5-26.3-26.2-1.3.4-2.6.1-3.4-.7-.8-.8-11.6-12-24-24.8-12.5-12.9-26-26.9-30.1-31.2-4.1-4.3-8.6-8-9.9-8.3-1.3-.3-3.7-.7-5.4-1-1.6-.3-8.4-1.6-15-2.9-6.6-1.3-13.2-2.6-14.8-2.9-7.9-1.4-15.5-2.9-17.7-3.3-1.4-.3-3.4-.7-4.5-.8-1.1-.2-2.2-.4-2.5-.5-.3-.1-.9-.3-1.5-.4-.5-.1-3.2-.6-6-1.1-2.7-.5-5.2-1-5.5-1-.3-.1-2.3-.5-4.5-.9s-6-1.1-8.5-1.6c-2.5-.6-5.7-1.2-7.2-1.5-1.6-.3-3.9-.7-5.1-1-1.3-.3-3.9-.7-5.8-.9-1.9-.3-3.4-.5-3.4-.6 0-.1-1.1-.4-2.5-.6-8.1-1.5-22.4-4.5-22.7-4.8-.2-.2-.6-1.3-.8-2.6-2-10.2-15.2-17.2-25.8-13.5zm10.8 14.5c2.6 2.9 2.4 7.8-.5 10s-7.7 1.8-9.6-.7c-5-6.6 4.6-15.4 10.1-9.3zm227.3 106.7c3.9 3.4 3.3 8.6-1.3 10.7-3.3 1.6-3.7 1.6-6.5-.1-2.9-1.7-3.4-2.8-3.1-6.8.3-2.6 3.7-5.5 6.6-5.5 1.3 0 3.2.8 4.3 1.7z"/><path d="M767.2 145.1c-4.1.8-9.3 3.7-12 6.9-2.8 3.3-5 9.6-4.7 14.1.2 4.4 5 14.9 6.8 14.9.4 0 1.9.8 3.4 1.7 4.2 2.7 11.9 3.7 16.3 2.1 2.2-.8 3-.4 6.5 3.5 7.1 7.8 17.2 19.1 20.1 22.6 1.6 1.9 3.8 4.4 4.9 5.6 1.1 1.1 3.8 4.1 6 6.6 5.6 6.5 14.6 16.6 19.4 21.9 2.2 2.5 4.1 4.7 4.1 5 0 .6-2.9 4.1-11.3 13.4-3.4 3.8-7 7.8-8 9-1 1.2-4.7 5.2-8.1 9.1-3.5 3.8-8.7 9.7-11.6 13-3 3.3-5.9 6.5-6.4 7.1-.6.6-3.6 3.9-6.6 7.4-3 3.5-6.2 7-7 7.9-.9.9-4.7 5.2-8.5 9.6-3.9 4.4-7.9 8.9-9 10-1.9 2.1-13.1 14.6-16.8 18.9-1 1.2-3 3.4-4.5 5.1-7.6 8.5-7.5 8.3-5.9 10.8.9 1.2 2.7 3.5 4.1 5.2 3.1 3.7 2.2 2.5 14.1 17.5 5.5 6.9 10.2 12.7 10.5 13 1 1 46.7 58.5 47.3 59.6.4.6-.1 2.6-.9 4.4-1.9 3.7-1.5 13.1.7 17.1 3.5 6.1 11.4 10.9 18.1 10.9 4.1 0 10.6-2.4 13.9-5.2 2-1.7 5.2-6.6 5.6-8.7 1.4-7.2 1.3-10.3-.6-14.6-3.7-8.3-11.6-13.1-20.6-12.3l-4.7.3-35.5-44.3c-38-47.5-36-44.4-31.3-49.3.8-.9 4.2-4.7 7.5-8.4 3.3-3.8 6.5-7.3 7-7.9.6-.6 4.4-4.9 8.5-9.6 4.1-4.7 8.1-9.2 9-10.1.8-.8 4.2-4.6 7.5-8.4 3.3-3.8 6.7-7.6 7.5-8.5.8-.9 4.9-5.4 9-10 4.1-4.7 8-9 8.5-9.6 2.9-3.1 14.8-16.6 19-21.4 2.6-3 5.5-6.2 6.4-7.1.9-.9 2.7-2.9 4-4.5 1.3-1.6 3.7-4.3 5.4-6.1l2.9-3.1-2.3-2.5c-1.3-1.3-3.3-3.5-4.4-4.8-1.1-1.3-4.3-4.9-7-7.9-2.8-3.1-7.5-8.4-10.5-11.9-3-3.4-6.6-7.5-8-9-2.6-2.8-13.5-15-16.7-18.7-4.2-4.8-12.4-14.1-15.3-17.4-2.7-3-3-4-2.4-7 3.3-15.6-8.4-28.5-23.4-25.9zm6.6 13.8c1.7.1 4.2 6 3.4 8-2.7 7-12.1 6.6-13.5-.6-.6-3.2 3.9-8.4 6.9-7.8 1 .2 2.5.4 3.2.4zm59.9 315.5c3.7 4.3.6 10.6-5.2 10.6-5 0-7.6-3.9-6.2-9.1 1.3-5 7.6-5.8 11.4-1.5z"/><path d="M545.8 185c-4.4 1.3-9.6 5.9-11.8 10.6-2.6 5.3-3 9.6-1.5 14.7 4.5 15.3 24.2 19.7 34.8 7.8 2-2.2 3.4-3 4.7-2.6 2 .6 5.4 1.4 8.5 2 8.3 1.4 10.1 1.7 10.6 2.1.3.2 1.9.5 3.5.8 3.7.7 48.1 9.9 53.9 11.3 4.7 1 14.8 3.1 26.4 5.4 3.6.7 6.2 2 8 3.8 1.4 1.5 8 8.5 14.6 15.5 6.6 7.1 15.7 16.7 20.3 21.5 7 7.3 8.1 9 7.6 11.1-1.3 5.5-1.4 6.7-.8 10.8.9 5.7 5.8 12.1 11.4 14.8 9.8 4.8 22 .6 26.8-9 8-16-5.7-33.1-23.4-29.2-2.9.6-3.6.2-8.5-5-3-3.2-7.6-8.1-10.4-11-2.7-2.9-8.7-9.2-13.1-14.1-18-19.4-19.8-21.2-22.9-21.7-2.5-.4-10.4-2-25.2-5.1-1.3-.3-3.5-.7-5-1-1.6-.3-3.7-.8-4.8-1-1.1-.2-3.1-.6-4.5-.9-1.4-.3-3.6-.8-5-1.1-1.4-.3-3.4-.8-4.5-.9-1.1-.2-5.6-1.2-10-2.1-4.4-1-9.1-1.9-10.5-2.1-1.4-.2-5.2-1-8.5-1.8s-7.3-1.7-9-2c-24.8-4.8-24.7-4.7-25.9-8.4-1.5-4.4-6-9.8-9.9-11.9-3.5-1.8-11.7-2.5-15.9-1.3zm8.4 13.9c1.3.5 2.9 2 3.7 3.4 1.1 2.1 1.1 2.9-.3 5.5-2.3 4.5-6.7 5.3-10.6 1.9-2.6-2.2-2.5-6.5.2-9.4 2.4-2.5 3.5-2.7 7-1.4zM750.5 293c2.2 3.5.8 8.1-3 9.8-3.4 1.6-8.9-1.4-9.3-5.1-.9-7.5 8.3-10.9 12.3-4.7zM175 204.3c-7.1 2.6-12.6 9.7-13.2 16.8-.3 4.3 1.1 11.9 2.2 11.9.5 0 1.2.9 1.5 2 .9 2.7 8.3 7.7 12.8 8.5l3.6.7 15.2 46.2c8.4 25.3 15.4 46.5 15.5 47.1.1.5 2.3 7.2 4.8 14.8 2.5 7.6 4.6 13.9 4.6 14.1 0 .3-6.9 3.5-9 4.1-1.3.4-34.7 14.4-39.5 16.5-2.2 1-6.9 3-10.5 4.5-3.6 1.4-7.8 3.2-9.5 4-1.6.7-7 2.9-12 5-4.9 2-11 4.5-13.5 5.7-2.5 1.1-4.9 2.1-5.5 2.2-.5.1-3 1.1-5.5 2.2s-7 3.1-10.1 4.4l-5.7 2.3-2.8-2c-12.5-8.8-28.9-2.2-32.1 12.8-1.8 8.3 2.9 18 10.5 21.6 4.8 2.3 13.6 2.3 18.4 0 5.9-2.8 10.3-9 11.2-15.6.5-3.7 1.5-5.8 2.9-5.8.9-.1 33.5-13.6 56.7-23.6 1.4-.5 2.7-1.1 3-1.2 1-.3 55-22.9 58.5-24.4 1.1-.5 4.3-1.9 7.1-3.1l5.1-2.2-4.4-13.2c-2.4-7.2-12.4-37.4-22.3-67l-17.9-54 2.6-3c4.8-5.7 5.9-11.5 3.8-19.1-.8-2.8-2.6-6.2-4-7.8-5.5-5.8-15-8.1-22.5-5.4zm10.9 13.7c4.5 2.3 3.5 10.4-1.4 11.6-7.9 2-12.4-6.6-6.1-11.7 2.2-1.8 4.1-1.8 7.5.1zM90.8 426.6c1.5 1 2.2 2.5 2.2 4.7 0 4.1-.9 5.3-4.3 6.6-4.8 1.9-9.8-2-8.9-6.8 1-5.7 6.2-7.9 11-4.5zM434.8 222.5c-8.9 3.3-13.5 11.3-12.5 21.4.6 5.8.6 6-2.8 8.8-1.9 1.5-5.3 4.5-7.6 6.6-2.3 2-6.2 5.4-8.7 7.5-2.5 2-5.5 4.6-6.7 5.7-1.2 1.1-3.4 3.1-5.1 4.4-1.6 1.3-4.1 3.4-5.5 4.7-2.1 2-3 2.3-5.5 1.5-5.4-1.7-20.9-6.5-21.9-6.7-3-.7-26.3-7.7-28-8.4-1.1-.5-14.1-4.6-29-9-45.1-13.7-40-11.7-41.3-16.4-1.9-7.3-8.6-13-16.4-13.9-14.5-1.8-25.6 10.9-22.5 25.7 1.8 8.2 10.1 14.6 19.3 14.7 5.7.1 11.2-2 14.7-5.7 1.2-1.3 2.9-2.4 3.7-2.4 1.3 0 19.3 5.3 23 6.7.8.4 1.7.7 2 .8 1.8.5 9.8 2.8 11 3.1.8.2 9.4 2.8 19 5.8 33 10.2 60.5 18.8 63.5 19.6 1.7.5 4.4 1.3 6.1 1.8 3.4 1.1 3.3 1.1 13.5-8.1 2.5-2.3 7-6.2 9.9-8.7 2.9-2.5 5.8-5 6.4-5.5.6-.6 4.5-3.9 8.6-7.4 4.1-3.6 8-7.1 8.7-7.9.7-.9 1.9-1.2 3-.7 4.4 1.7 11.5 1.7 16.1 0 5.6-2.2 8.7-5.1 11.2-10.8 7.5-16.4-9-33.5-26.2-27.2zm10.6 12.5c.6 0 1.9 1.2 2.8 2.8 1.4 2.3 1.4 3.1.3 5.9-3.5 8.2-15.2 3.4-12.2-5 1-2.9 4.2-4.9 6.5-4.1.8.2 1.9.4 2.6.4zm-199.5 9.6c1.1 1.4 1.8 3.2 1.6 4.2-.2.9-.4 2.3-.4 2.9-.1.7-1.3 1.9-2.8 2.6-4.8 2.3-9.2.1-9.7-5-.4-3.8.2-5.1 3.2-6.7 3.2-1.7 5.7-1 8.1 2zM501.3 231c-6 2.7-10.4 7.8-12 14-1.3 5 .9 15.8 3.6 17.5.6.3.3 1.3-.7 2.3-.9 1-4.4 4.9-7.7 8.7-3.3 3.8-7.3 8.3-9 10-1.6 1.8-4.6 5.2-6.6 7.6-2 2.4-4.7 5.6-6 7-2.9 3-14.7 16.3-17.2 19.3-2.6 3-12.8 14.5-15.6 17.5-1.2 1.4-3.8 4.4-5.7 6.7-2.5 2.9-4.1 4-5.7 3.8-1.2-.1-4.4-.5-7.2-.9-2.7-.3-5.7-.8-6.5-1-.8-.2-4.3-.7-7.7-.9-8.8-.8-8.7-.7-10-5.1-3.3-10.7-16.2-16.5-26.9-12-13.5 5.6-17 23-6.6 33.1 4.6 4.5 7.2 5.6 13.9 5.9 6.1.3 12-2.1 15.6-6.5 1.8-2.1 3.1-2.7 5.3-2.4 1.6.2 4.7.6 6.9.8 5.8.7 13.6 1.7 16.3 2.1 1.3.2 5.1.7 8.5 1l6.3.7 5.1-5.9c2.8-3.2 6.1-6.9 7.3-8.3 1.2-1.4 3.4-3.9 4.8-5.5 1.5-1.7 5.9-6.6 9.7-11 3.9-4.4 7.2-8.2 7.5-8.5.3-.3 3.4-3.9 7-8s7.2-8.1 8-9c.8-.9 4-4.5 7-8s7-8 8.8-9.9c1.8-2 5.6-6.3 8.5-9.7 4.2-5 5.8-6.1 8.2-6.1 8.9.1 17.8-6 20.2-13.7 4-13.1-4.6-26-18.1-27-3.7-.2-6.6.2-9.3 1.4zm13.2 14.3c2 2.8 1.9 6-.3 8.6-2.2 2.8-5 3.2-8.4 1.3-3.1-1.8-4-4.4-2.8-7.7 2-5.2 8.5-6.4 11.5-2.2zm-142 94.2c1.4 1.3 2.5 3.6 2.5 5 0 3.3-3.3 6.5-6.7 6.5-9.4-.1-8.9-13 .5-13.9.7 0 2.4 1 3.7 2.4z"/><path d="M81.7 265.6c-.1.2-1.6.5-3.2.8-4.4.8-10.6 5.6-12.8 9.9-3.6 7.1-3.1 15.1 1.4 21.7 1.6 2.4 1.6 2.7-2.8 11.5-2.5 5-17.9 35.7-34.4 68.4L0 437.4l13.2 22c16.5 27.5 17.2 28.7 16 29.5-1.8 1.2-3.4 8.4-3 13.3.8 8 7.5 15.8 15 17.4 10.8 2.3 21-3.2 24.3-13 2.8-8.6.9-16.3-5.6-22.1-4.2-3.7-8.5-5.3-13.8-5.1-2.7.2-4.6-.3-5.4-1.3-.8-.9-5.2-7.8-9.8-15.4-16.8-27.6-16-26.1-14.5-28.3.7-1.1 14.5-28.2 30.7-60.4s29.6-58.7 30-59c.3-.3 1.3-2.2 2.2-4.3 1-2 2.6-3.7 3.5-3.8 7.6-.4 15.6-5 18.8-10.9 2.8-5 2.9-14 .3-19.2-2.4-4.7-8.2-9.4-12.8-10.4-4.4-.9-7-1.2-7.4-.8zm8.1 19.8c.4 3.5-2.1 7.3-5 7.8-8.2 1.3-11.6-10.3-3.9-13 3.7-1.4 8.5 1.5 8.9 5.2zM51 495c3.7 3.7 2.1 9.4-3.3 11.3-4 1.5-9.5-4-8-8 1.9-5.4 7.6-7 11.3-3.3zM572 279.2c-2.8 3.3-4.1 4.9-12.1 13.9-3.1 3.5-7.4 8.4-9.5 10.9-2.1 2.5-5.1 5.8-6.6 7.5-1.5 1.6-3.6 4.1-4.8 5.5-1.2 1.4-4.5 5.2-7.5 8.5-2.9 3.3-11.7 13.4-19.6 22.5-7.8 9.1-14.8 17-15.3 17.6-.6.6-3.3 3.7-6.1 6.9-2.7 3.2-6 7-7.3 8.3-1.2 1.4-4.1 4.8-6.5 7.5-2.3 2.8-5.3 6.2-6.7 7.7-1.4 1.5-4.5 5-7 7.9-2.5 2.9-5.4 6.3-6.5 7.5-1.1 1.3-2.9 3.4-4 4.7-18.9 22.2-21.9 25.1-24.8 24-2.3-.8-5.1-.7-10.1.2-4.2.9-9.7 5.6-12.3 10.8-7 13.6 3.8 30 19.3 29.3 5.8-.2 10.9-3 15.2-8.2 3.4-4.1 3.6-4.9 3.7-11.1 0-3.6-.4-7.8-.9-9.3-.7-2.3-.3-3.2 2.3-5.9 1.7-1.7 3.1-3.3 3.1-3.5 0-.3 1-1.5 2.3-2.8 1.2-1.2 4.3-4.7 6.8-7.7 2.6-3 6.2-7.2 8.2-9.4 1.9-2.2 10.1-11.7 18.2-21 8.1-9.4 16.2-18.6 17.9-20.5 1.7-1.9 6-6.9 9.6-11 3.6-4.1 6.7-7.7 7-8 .3-.3 3.4-3.9 7-8 3.5-4.1 7.1-8.2 8-9.1.8-.9 2.2-2.5 3-3.5 2.6-3.1 15.4-17.9 16-18.4.3-.3 5-5.7 10.5-12 5.4-6.3 11.5-13.2 13.4-15.2l3.6-3.7 14 5.8c7.7 3.1 14.9 6.1 16 6.6 1.1.4 2.5.9 3 1 .6.2 3.2 1.2 5.8 2.4 2.6 1.2 5.8 2.6 7.1 3 1.7.7 2.5 2 3 5.1.9 5.6 2.8 9.1 7 12.8 4.3 3.8 10.2 5.5 15.7 4.7 16-2.4 23.3-22.8 12.2-34.3-7.6-7.9-18.3-8.9-27.3-2.7-3.4 2.3-3.9 2.4-6.6 1.1-4.7-2.3-53.3-21.6-54.1-21.5-.5 0-1.9 1.4-3.3 3.1zm80 28.6c3 2 3.7 6.8 1.5 9.6-1.9 2.5-7.9 2.9-9.8.7-2.6-3-2.8-6.4-.4-9.3 2.6-3.2 5.2-3.5 8.7-1zM427.8 454.7c2.7 2.3 3.1 5.3 1.3 8.7-1.9 3.4-5.6 4.4-9 2.3-3.3-2-4.2-5.5-2.3-8.9 2.3-4 6.7-4.9 10-2.1zM863.5 280.3c-8.9 2.9-14.7 10.5-14.7 19.2-.1 9.1 5.4 17.1 13.6 19.8 3.8 1.3 4 1.6 5.2 7.3 1.7 8.6 3.6 19.2 4 22.3.1 1.4 1 6.6 1.8 11.6 2 11.7 2 11.5-1.2 15-1.5 1.7-5.6 6.4-9.2 10.5-9.7 11.3-11.8 13.2-13.9 12.1-2.4-1.3-9.3-.6-13.5 1.4-9.6 4.6-14.1 17.9-9.2 27.2 5.2 10.2 17.5 14.5 27.2 9.5 5.4-2.8 8.4-6.3 10.4-12.2 1.7-5 1.7-5.4-.5-15-.4-2 .4-3.5 4.2-7.7 2.7-2.8 6.8-7.5 9.3-10.4 2.5-2.9 5.6-6.5 7-8 6.5-7.1 6.3-6.2 4.5-15.9-.2-1.4-.7-4.5-1.1-7-.3-2.4-.7-4.7-.9-5-.2-.3-.6-2.9-1-5.9-.4-3-.9-6.3-1.1-7.5-.2-1.2-.7-3.7-1-5.6-.3-1.9-1.2-6.8-1.9-10.9l-1.3-7.4 2.8-2.7c8.6-8.4 8.6-21.8.2-29.8-5.2-4.8-13.5-6.9-19.7-4.9zm11.7 17.5c.5 6.3-1.5 9.1-6.9 9.2-7.5 0-8.4-12-1-13.2 3-.5 7.7 1.8 7.9 4zm-25.7 115.6c4.2 4.2 1.2 11.6-4.5 11.2-6.3-.4-9.2-7.4-5-11.6 2.7-2.7 6.6-2.5 9.5.4zM283.8 299.5c-13.7 4.7-18.5 21.5-9.1 32.4 3.8 4.6 8.2 6.9 13.2 7.3 4 .3 3.4-.8 15.1 30.3 2.3 6 4.5 11.7 5 12.7.8 1.5.2 2.2-3 3.3-.7.2-3 1.2-20.5 8.6-8.2 3.5-15.3 6.3-15.7 6.1-.5-.1-.8.3-.8.8 0 .6-.6 1-1.2 1-.7 0-11 4.1-22.8 9.1-11.8 5.1-22.1 9.2-22.7 9.2-.7 0-1.3.3-1.3.7 0 .3-1.7 1.2-3.7 1.9-2.1.8-5.6 2.2-7.8 3.2-2.2.9-12.3 5.2-22.4 9.4-18.1 7.6-18.5 7.7-21 6.1-11.6-7.6-24-5.8-30.7 4.4-4.8 7.2-3.9 18.6 1.9 24.8 5.5 5.9 15.4 8.5 21.7 5.8 7.1-3.1 12.3-9.5 13.4-16.5.2-1.8.8-3.7 1.3-4.1.4-.4 13-5.7 27.8-11.9 24.3-10.2 29.2-12.2 36-15.2 9.6-4.1 30.7-12.9 31.1-12.9.2 0 2.7-1.1 5.6-2.4 7.9-3.6 25.1-10.8 26.4-11 .7-.1 1.8-.7 2.5-1.3.8-.6 2.5-1.4 3.9-1.7 1.4-.4 3.4-1.1 4.5-1.6 1.1-.6 5-2.2 8.6-3.7 4.4-1.9 6.5-3.3 6.3-4.3-.2-.8-2.5-7.4-5.3-14.5-2.7-7.2-7.4-19.4-10.4-27.2l-5.5-14.2 2.4-3.3c7.8-10.5 3.7-25.7-8.2-30.7-4.5-1.8-10.4-2.1-14.6-.6zm11.8 15.3c3 3.9.5 9.5-4.8 10.8-2.1.5-3.2 0-5.1-2-1.4-1.4-2.3-3.6-2.2-4.8.1-1.3.3-2.8.4-3.4.4-3.4 9.2-3.9 11.7-.6zM155.2 451.4c1 .7 2.1 2.7 2.4 4.5.9 4.4-2.5 8.1-6.8 7.5-4.4-.5-6.6-2.9-6.3-6.6.5-5.5 6.6-8.6 10.7-5.4zM696.6 316.1c-10.9 3-17.7 15.7-14.1 26.2l1.3 3.9-6.1 6.7c-8.4 9-15.4 16.6-20 21.3-3.3 3.4-3.6 4.2-2.5 5.6 1.8 2.4 10.2 12.6 10.8 13.2.3.3 2.5 3 5 6s5.5 6.6 6.7 8c1.1 1.4 7.9 9.5 14.9 18 7.1 8.5 13.1 15.7 13.4 16 .3.3 9.3 11.1 20 24s19.8 23.8 20.2 24.1c.5.3.1 2-.8 3.7-3.1 6.3-1.3 16.4 3.9 22.1 5.1 5.5 15.8 7.8 22.7 4.8 13.8-5.8 17-22.8 6.3-33.9-3.4-3.5-8.3-5.2-15.5-5.3h-5.7L735 454c-12.2-14.6-23.9-28.5-26-31-2.1-2.5-7.7-9.2-12.5-15-14.3-17.2-16.8-20.3-20.2-24.1-1.8-2-3.3-4.1-3.3-4.6s2.5-3.6 5.6-6.9c3-3.2 7.8-8.4 10.7-11.5 4.4-4.9 5.4-5.6 7.6-4.9 12 3.3 25.4-7.2 25.4-19.9-.1-13.6-12.8-23.5-25.7-20zm10.6 16.3c1 1.1 1.8 2.7 1.8 3.4 0 1.7-2 5.5-3.4 6.4-3.6 2.4-10.6-1.1-10.6-5.3 0-7 7.9-9.9 12.2-4.5zM769 496c2.8 2.8 2.6 7.4-.5 9.9-7 5.4-15.3-4.5-8.4-10.2 2.8-2.3 6.4-2.2 8.9.3z"/><path d="M612.3 353.1c-11.9 2.1-19.6 14.5-16.2 26.2.8 2.9.4 3.5-8.5 12.6-5.2 5.3-11.8 12.1-14.8 15.2-2.9 3.1-13 13.7-22.4 23.5-9.5 9.9-20.3 21.2-24.2 25.3-6.4 6.8-7.3 7.4-9.4 6.4-1.3-.6-4.8-1-7.8-1-10.8 0-19.5 7.8-20.4 18.4-1.4 17.1 17.7 28.3 31.7 18.6 3.8-2.6 7.7-7.8 8.5-11.3.5-2 .5-11.2.1-12.6-.2-.7 8.8-10.7 20.1-22.4s23.1-24 26.4-27.4c27.9-29 31.8-32.8 33.4-32.1.9.4 3.7.8 6.2 1 11.8.9 22.7-10.7 21.3-22.4-.5-5-4.9-12.4-8.6-14.7-4.8-2.8-10.6-4.1-15.4-3.3zm8.8 15.5c4.2 3.8.9 11.4-5 11.4-6.9 0-9.2-10.5-2.7-13 2.8-1 5.4-.5 7.7 1.6zM514.3 477.2c3.4 4.1 0 11.2-5.1 10.6-4.2-.5-6.1-2.1-6.8-5.5-1.3-6.7 7.4-10.5 11.9-5.1z"/><path d="M641.1 430.2c-8.2 1.4-15.7 8.5-16.6 15.5-.2 1.6-.4 3-.5 3.3-.2.3-.2.9-.1 1.3 1.3 7.6 1.5 7-5.5 14.3-3.7 3.8-16.2 16.8-27.9 28.9-11.7 12.1-26.7 27.6-33.3 34.4l-12 12.5-5.3-2.1c-3-1.1-14.4-5.4-25.4-9.6-11-4.1-21.3-8.1-23-8.7-7-2.9-20.8-8.2-22-8.5-.5-.1-1.7-.5-2.5-.8-2.7-1.2-62.7-24-85-32.3-8-3-15.4-5.8-16.5-6.3-1.1-.5-3.8-1.5-6-2.4-2.2-.8-5.8-2.2-8-3.1-2.2-.8-8.9-3.4-15-5.6-6-2.2-11.7-4.4-12.5-4.7-.8-.3-2.1-.7-2.9-.9-2.2-.4-3.9-2.6-4.5-5.5-.8-4.6-3.5-8.8-7.7-11.9-13.1-9.5-31.6-.8-32.4 15.3-.6 13 10.4 23.1 23.3 21.3 4.2-.6 9.9-3.7 11.5-6.2.9-1.6 2.2-1.3 12.2 2.6 4.4 1.8 11.4 4.4 15.5 6 12.9 4.7 37.4 14 39.5 15 2.2 1 34.5 13.3 60.5 23 9.1 3.4 17.9 6.8 19.5 7.5 1.7.8 8.6 3.5 15.5 6.1 14.5 5.4 18.2 6.8 43 16.3 10.2 3.8 21.3 8.1 24.8 9.5l6.4 2.5 6.1-6.3c3.4-3.5 15.2-15.7 26.2-27.1 11-11.4 23.8-24.6 28.4-29.4 4.6-4.7 11.8-12.3 16.2-16.9 7.5-7.9 10.1-9.3 12.5-6.9 1.2 1.1 10.1.8 13.1-.5 8.5-3.7 13.8-11.4 13.6-20-.2-4.5-2.5-11.2-4.8-13.3-6-5.6-11.7-7.6-18.4-6.3zm8.1 15.8c2.4 2.9 2.3 6.1-.2 8.8-4.4 4.7-13 .6-11.6-5.5 1.5-5.9 8.2-7.8 11.8-3.3zm-348.5 2.5c2.4.8 3.9 5.2 2.9 8.3-.6 1.9-4.5 4.2-7 4.2-2.3 0-5.6-3.4-6.1-6.1-.6-3.5 2.6-7.7 5.7-7.4 1.3.1 3.3.5 4.5 1z"/><path d="M705.8 461.6c-.2.1-1.5.5-2.8.7-10.1 1.6-16.4 9.6-16.4 20.4l.1 6.3-13.9 13.2c-7.7 7.3-16.6 15.8-19.7 18.8-3.2 3-12 11.3-19.5 18.5-22 20.8-24.3 23-40.6 38.5-30.6 29.2-30.2 28.9-31.9 28-1.9-1-11.8-4.8-42.1-16.4-12.4-4.8-23.4-9.1-24.5-9.6-1.7-.8-35.5-13.8-53-20.5-3.3-1.2-13.2-5-22-8.5-8.8-3.4-23-8.9-31.5-12.2-8.5-3.2-16.9-6.6-18.7-7.4-1.7-.8-3.5-1.4-4-1.4-.4 0-.9-1.5-1-3.4-.2-4.4-3.3-10.3-7.2-14-1.7-1.7-3.1-2.6-3.1-2.2 0 .5-.6.3-1.4-.3-2.3-1.9-10.6-2.9-14.1-1.6-7.7 2.8-12.1 7.2-14.1 14.3-5.3 18.2 15.3 33.1 30.9 22.3 2.5-1.7 4.7-2.8 4.9-2.5.3.3 2.7 1.3 5.4 2.3 9.4 3.5 34.4 13.1 46.1 17.7 6.5 2.5 14.7 5.7 18.3 7.1 3.6 1.4 10.3 4 15 5.8 4.7 1.8 14.6 5.7 22 8.5 12.9 4.9 31.9 12.3 40.5 15.7 2.2.8 5 1.9 6.3 2.4 1.2.5 3.2 1.3 4.5 1.8 1.2.5 6 2.4 10.7 4.1 4.7 1.8 9.9 3.8 11.5 4.5 1.7.7 5.3 2.1 8 3 2.8 1 5.6 2.3 6.3 2.8.6.5 1.2.7 1.2.3 0-.4 1.2 0 2.8.7 6.7 3.4 7.1 3.3 16.7-5.9 5-4.7 15.5-14.7 23.4-22.2 8-7.6 16.6-15.8 19.3-18.4 2.7-2.5 10.8-10.2 17.9-17 7.2-6.8 15.6-14.7 18.7-17.7 3.2-2.9 12.6-11.9 21.1-20 8.5-8 16.2-15.4 17.2-16.5 1.7-1.7 2-1.7 6.7-.2 5.7 1.9 11.4 1.6 16.2-.9 3.7-1.9 8-5.9 8-7.5 0-.5.5-1 1.2-1 .6 0 .8-.3.5-.6-.3-.4-.2-1.5.4-2.5.9-1.8 1.3-8.7.7-11.9-.7-3.1-4.7-8.8-7.9-11.3-2.9-2.1-12.2-5.1-13.1-4.1zm4.2 14.9c1.7.9 3 2.1 3.1 2.8 0 .6.2 2 .4 2.9.2 1-.6 2.9-1.7 4.3-2.5 3.2-6.9 3.3-9.8.3-4-4.4-1.7-10 4.8-11.7.2-.1 1.6.6 3.2 1.4zm-361.6 47c5.7 5.3-.2 13.5-7.6 10.4-4.7-1.9-5.1-9.5-.6-11.7 3.6-1.7 5.3-1.4 8.2 1.3zM214.5 479.1c-1.6.6-3.7 1.2-4.5 1.4-.8.2-7.8 2.3-15.5 4.5-7.7 2.3-17.1 5-21 6.1-3.8 1.1-7.7 2.2-8.5 2.6-.8.3-1.9.7-2.5.8-.5.1-1.2.3-1.5.4-.3.2-1.2.4-2 .6-.8.1-5.5 1.5-10.5 2.9-4.9 1.5-9.7 2.9-10.5 3.1-9.1 2.6-12.4 3.6-17.6 5.3l-6.1 1.9-2.9-2.4c-6.7-5.5-12.9-6.9-20.4-4.7-8.4 2.5-14.1 10.2-14.1 19.3-.1 5.8 1.1 8.9 5.2 13.5 9.6 11 27 8.5 33.3-4.8.9-1.9 1.6-4.1 1.6-4.9 0-.8.6-1.9 1.3-2.4.9-.8 27.4-9 34.7-10.7 2.5-.6 19.1-5.5 24.3-7 2.6-.8 4.9-1.5 5.2-1.6.3 0 1-.2 1.7-.5.7-.2 6.7-2 13.3-3.9 6.6-1.9 14-4.1 16.5-4.8 3-1 5.5-1.2 7.5-.6 1.7.5 3.7 1.1 4.5 1.3.8.2 5.1 1.5 9.5 2.9 4.4 1.3 12.2 3.7 17.4 5.3 9.3 2.8 9.4 2.9 9.7 6.3.5 5.2 4.1 11.1 8.6 14.4 5.7 4.1 15.5 4.7 21.2 1.4 8.1-4.7 12.3-13.7 10.4-21.8-.5-1.9-1-4-1.1-4.5-.8-3.3-5.6-8-10.4-10.2-4.2-1.9-6.4-2.4-9.8-2-4.9.6-10.7 3.1-12.6 5.3-.8.9-1.6 1.1-2.8.4-1-.5-2.8-1.1-4.2-1.3-1.3-.2-3.1-.7-3.9-1-3.2-1.3-13.9-4.6-20.5-6.3-.5-.1-4.6-1.4-8.9-2.8-8.5-2.8-9.6-2.9-14.1-1.5zm73.7 23.6c3.5 4.2.5 10.4-5.2 10.5-6.5.2-9.3-7.2-4.4-11.7 2.1-2 3-2.2 5.4-1.3 1.6.5 3.5 1.6 4.2 2.5zm-186.6 13.4c2.8 2.3 2.2 9-1 11.1-2.1 1.4-6.6.8-8.6-1.2-2.7-2.7-2.5-6.6.4-9.5 2.5-2.5 6.5-2.6 9.2-.4zM208 545.6c-3 2.5-7.5 6.3-9.9 8.3-2.4 2-5.1 4.3-6.1 5.1-1 .8-3.9 3.3-6.6 5.5-2.7 2.2-5.6 4.8-6.6 5.7-1 1-2.2 1.8-2.7 1.8s-1.2.7-1.5 1.6c-.6 1.6-1.3 1.6-7.6-.1-4-1.1-10-1.3-10.6-.3-.3.4-1.3.8-2.2.8-1 0-3.4 1.4-5.5 3.1-12.8 10.6-9.1 30.7 6.5 35.4 14.4 4.2 27.6-7 26.1-22.2-.3-3.5 0-4.6 1.9-6.2 13.7-11.6 34.3-28.1 35-28.1.6 0 3.6.7 6.7 1.5s7.2 1.7 9.1 2c1.9.3 5.3 1.1 7.5 1.6 2.2.6 4.7 1.3 5.5 1.4.8.2 5.7 1.3 10.8 2.4 5 1.2 13.3 3 18.2 4.1 18.3 4.1 27.5 6.1 29 6.5 8.8 2.1 11.9 2.8 14.5 3.1 1.7.3 3.7.7 4.5 1.1.8.3 5.2 1.3 9.8 2.3 4.5.9 8.4 1.9 8.7 2.1.2.3.7 2 1 3.8 1.6 9.4 9.5 16.2 19.2 16.7 14.3.7 24.7-12.7 20.4-26.5-4.2-13.7-22.6-18.9-32.8-9.2-2.3 2.2-3.4 2.2-10.8.3-2.2-.6-5.1-1.3-6.5-1.6-1.4-.2-4.7-1-7.5-1.6-2.7-.6-5.7-1.3-6.5-1.5-.8-.2-3.7-.9-6.5-1.5-2.7-.7-6-1.4-7.2-1.5-1.1-.2-3-.6-4.2-1-1.1-.3-3.3-.9-4.8-1.2-1.6-.3-3.2-.6-3.8-.7-.5-.2-2.1-.6-3.5-.9-1.4-.3-12.6-2.9-25-5.7-12.4-2.8-27.2-6.2-33-7.5-18.1-4.1-16.8-4.2-23 1.1zm159.1 32.9c5.8 3.5 3.3 12.5-3.4 12.5-8 0-9.3-10.8-1.7-13.2 1.9-.6 3.1-.5 5.1.7zm-201.3 10.2c2 1.9 2.4 6.5.8 8.5-3.4 4.6-10.7 3.5-12-1.8-1-3.8.2-6.4 3.7-7.9 3.2-1.3 5.3-1 7.5 1.2z"/><path d="M81.3 556c-1.3.5-2.3.7-2.3.4 0-.6-5.8 3.3-7.9 5.3-2.9 2.9-4.9 8.8-4.9 14.6 0 9.2 5.1 15.7 15.3 19.3 2.3.8 4.7.7 9.5-.2l6.4-1.3 4.5 3.7c2.5 2 5.1 4.1 5.7 4.7.6.6 3.1 2.7 5.4 4.6 2.4 1.8 5.9 4.8 7.9 6.5 2 1.7 4.7 3.9 5.9 5 3.4 2.7 5.3 4.3 11.3 9.5 3 2.6 11.7 9.9 19.4 16.3 7.7 6.5 16 13.5 18.5 15.6 2.5 2.1 8.1 6.8 12.5 10.5s9.4 8 11.1 9.5c6.2 5.5 7.4 5.9 19.5 6.5 6.2.3 14.8.8 18.9 1 4.1.3 11.1.8 15.5 1 4.4.3 11.6.7 16 .9 8.4.5 22.6 1.4 36 2.2 4.4.2 11.9.6 16.6.9l8.5.4 38.3-37.8 38.3-37.9 7.1.1c7.7.1 11.8-1.3 15.8-5.6 2.5-2.7 5-7.2 5.4-10.1.8-5 .8-6.3-.3-9.9-4.4-15.1-23-19.8-34.3-8.7-5 5-7.1 13.8-4.9 20.5l1.2 3.7-35.8 35.6c-35.2 34.9-36 35.5-39.9 35.5-3.7 0-20.6-.9-35.5-1.9-3.6-.2-10.5-.6-15.5-.9-4.9-.3-12.1-.7-16-.9-3.8-.3-12.8-.8-20-1.2-15.1-.8-20.6-1.2-22-1.3-.6-.1-2.1-1.1-3.5-2.4-1.4-1.2-6.6-5.6-11.5-9.7-5-4.1-10.1-8.5-11.5-9.7-1.4-1.2-3.6-3.1-5-4.2s-3.1-2.6-3.9-3.2c-.7-.7-6.1-5.2-12-10.1-5.8-4.9-12-10.2-13.7-11.7-1.7-1.5-5-4.2-7.4-6.1-21.6-17.7-37.5-31.9-37.3-33.6 1.2-9.1-.5-15.1-5.7-20.2-5.6-5.4-13.7-7.6-19.7-5.2zM93 575.4c0 6.5-6.5 9.3-11 4.7-3.1-3-3.1-6.8-.1-9.4 4.3-3.9 11.1-1 11.1 4.7zm326.6 17.2c3 2.9 2.7 6.7-.7 9.6-2.3 2-7.7 1.6-9.1-.5-5.1-7.8 3.3-15.6 9.8-9.1zM455.5 591c-4.3 1.3-10.2 6.6-12.4 10.8-2.1 4.5-2.6 10.7-1.1 14.7 1.1 3 1 3.1-14.2 17.8-8.4 8.2-26.7 26-40.7 39.5-13.9 13.6-28.8 28.1-33.1 32.2-4.2 4.1-19.7 19.2-34.5 33.5-14.7 14.3-31 30.1-36.2 35.2-9.1 8.9-9.5 9.1-12.4 8.1-1.7-.6-5.3-.8-8-.6-14.4 1.4-22.7 17.9-15.4 30.3 10.3 17.6 36.9 11.1 38-9.3.1-2.6-.3-5.8-.9-7.1-1.1-2.6-6.8 3.3 58.8-60.5 14.2-13.8 29.5-28.7 34-33.1 24.4-23.8 58.8-57.1 66.7-64.6l9-8.6 3.6 1.2c8.2 2.8 18.7-1.9 23.2-10.3 1.9-3.6 2.5-11.6 1.1-15.7-1.4-4.4-6.2-10-10.1-12.1-3.6-1.8-11.5-2.5-15.4-1.4zm11.4 15.6c3.9 4.9-.1 12.3-5.8 10.9-6.1-1.5-7.9-6.9-3.9-11.2 2.9-3.1 7.1-3 9.7.3zM270.6 798.5c1.6 2.4 1.3 6.8-.7 9.1-3.3 4-12.4-.5-11.5-5.7.3-1.3.5-2.8.5-3.2.1-1.3 6.2-3.5 8.3-2.9 1.1.2 2.6 1.5 3.4 2.7z"/><path d="M203.1 595.7c-2.7 1.3-5.8 4.1-7.6 6.5-2.5 3.6-3 5.3-3.1 10.7-.3 12.2 7.3 20.5 19.2 21 7.5.3 14.8-3.4 18.1-9.3 1-1.8 4.1-2.2 10.3-1.2 1.9.3 6 .8 9 1.1 3 .3 6.4.7 7.5 1 1.1.2 4.7.7 8 1 5.8.6 9 1 15.8 2 1.7.2 5.5.7 8.2 1 16.5 1.8 16.2 1.7 16.8 5 1.9 9.8 12.1 17.3 21.8 16.2 16.5-2 24.1-21.9 13-34-7.9-8.7-22.1-9-29.6-.7-1.7 1.9-2.5 2-8.5 1.4-3.6-.3-7.4-.8-8.5-1-1.1-.2-4-.6-6.5-.9-2.5-.4-8.1-1.1-12.5-1.6-4.4-.6-9.7-1.2-11.7-1.4-2-.2-5.4-.6-7.5-.9-2.1-.3-6-.8-8.8-1.2-2.7-.3-5.9-.7-7-.9-1.1-.1-3.2-.3-4.7-.4-2.1-.1-2.9-.8-3.7-3.4-2.4-7.1-11.1-12.8-19.1-12.5-2.4.1-6.4 1.2-8.9 2.5zm14.4 13.3c2.3 2.6 2.2 6.7-.2 9.2-2.8 2.8-6.8 3-9.1.4-3-3.3-3.2-5.1-1.1-8.5 1.5-2.5 2.5-3.1 5.2-3.1 2.1 0 4.1.8 5.2 2zm113.4 16.5c.8.8 1.4 2.8 1.4 4.5 0 3.7-1.8 5.7-5.9 6.6-6.2 1.2-9.9-7.2-5.1-11.6 2.4-2.4 7-2.1 9.6.5zM272.5 700c-12.2 2.7-19.6 15.1-15.8 26.3l1.3 3.9-11.3 11.3c-10.3 10.4-11.4 11.2-13.7 10.3-6.9-2.6-14.2-1.4-20.4 3.5-7.2 5.7-9.7 16.6-5.7 24.5 1.7 3.4 9.1 11.2 9.1 9.6 0-.4.6-.2 1.3.4 1.9 1.6 9.2 2.1 13.8.9 5.7-1.4 12.4-8.1 13.9-13.8.7-2.4.9-6.4.6-8.9l-.6-4.5 11.8-12.2c8.6-8.8 12.2-11.9 13.2-11.3 2.5 1.5 12.7.4 16.2-1.8 10.1-6.3 13.3-18.1 7.7-28.2-4.2-7.4-13.6-11.8-21.4-10zm8.3 16c1.7 1.8 1.9 3 1.3 7.5-.2 1.6-5.4 4.3-7.6 3.9-2.6-.4-5.5-4-5.5-7 0-5.4 8-8.4 11.8-4.4zm-51.5 48.9c.4.1 1.4 1.6 2.2 3.3 2.8 6.9-4.7 12.7-10.4 8-4.9-3.9-1.3-12.8 4.8-11.8 1.4.2 3 .5 3.4.5z"/></svg>